<svg width="20" height="17" viewBox="0 0 20 17" fill="none" xmlns="http://www.w3.org/2000/svg">
<path d="M0.571533 4.6777L9.70353 9.42713C9.79513 9.47476 9.89686 9.49963 10.0001 9.49963M0.571533 4.6777V12.9286L0.575819 13.0863C0.616103 13.7967 0.926705 14.4647 1.44391 14.9534C1.96111 15.4421 2.6457 15.7143 3.35725 15.7143H16.643L16.8007 15.71C17.5111 15.6697 18.1791 15.3591 18.6678 14.8419C19.1565 14.3247 19.4287 13.6401 19.4287 12.9286V4.67856M0.571533 4.6777L10.0001 9.49963M0.571533 4.6777V4.07141C0.571487 3.35987 0.843722 2.67527 1.33239 2.15807C1.82107 1.64087 2.48913 1.33027 3.19953 1.28998L3.35725 1.2857H16.643C17.3545 1.28565 18.0391 1.55789 18.5563 2.04656C19.0735 2.53523 19.3841 3.20329 19.4244 3.9137L19.4287 4.07141V4.67856M10.0001 9.49963C10.1033 9.49963 10.2051 9.47476 10.2967 9.42713L19.4287 4.67856M10.0001 9.49963L19.4287 4.67856" stroke="#828282"/>
</svg>
