<svg width="20" height="20" viewBox="0 0 20 20" fill="none" xmlns="http://www.w3.org/2000/svg">
<path d="M13.1856 14.6061L13.4282 14.6364L13.601 14.4635L15.2788 12.7857C15.2792 12.7854 15.2795 12.7851 15.2799 12.7847C15.4371 12.6298 15.6358 12.5238 15.852 12.4794C16.0684 12.4351 16.2929 12.4543 16.4985 12.5349C16.4988 12.5351 16.4992 12.5352 16.4996 12.5353L18.5419 13.3508C18.5423 13.3509 18.5427 13.3511 18.5431 13.3513C18.7502 13.4356 18.9278 13.5793 19.0536 13.7642C19.1792 13.949 19.2475 14.1666 19.25 14.39V18.1353C19.2485 18.2868 19.2166 18.4365 19.156 18.5754C19.0952 18.7148 19.0067 18.8405 18.8961 18.9449L19.2391 19.3087L18.8961 18.9449C18.7854 19.0493 18.6547 19.1302 18.512 19.1827C18.37 19.235 18.2189 19.2581 18.0678 19.2508C11.0587 18.8139 6.88484 15.6404 4.38091 12.028C1.86165 8.39339 1.01603 4.28622 0.74675 2.00074C0.729401 1.84301 0.745538 1.6834 0.794113 1.53233C0.842837 1.3808 0.923092 1.2413 1.0296 1.12301C1.13611 1.00473 1.26645 0.91033 1.41206 0.846036C1.55767 0.781742 1.71524 0.749006 1.87441 0.749983L1.87441 0.749992H1.87748H5.49916C5.72241 0.750785 5.94034 0.818282 6.12497 0.943828C6.30978 1.0695 6.45276 1.24758 6.53553 1.45518L6.53562 1.45539L7.35312 3.50289L7.35311 3.5029L7.35448 3.50626C7.43757 3.71007 7.45877 3.93385 7.41543 4.14964C7.37211 4.36532 7.26623 4.56347 7.11101 4.71935C7.11093 4.71943 7.11085 4.71951 7.11077 4.71959L5.43142 6.39894L5.25358 6.57678L5.29035 6.82558L5.78498 6.75249C5.29035 6.82558 5.29039 6.82584 5.29043 6.82612L5.29053 6.8268L5.29081 6.82863L5.29164 6.83406L5.2945 6.85195C5.29695 6.86695 5.30052 6.88804 5.30535 6.91484C5.315 6.96844 5.32969 7.04494 5.35058 7.14131C5.39232 7.33394 5.45893 7.6066 5.55962 7.93484C5.76062 8.59005 6.09964 9.47388 6.65304 10.3867C7.76492 12.2207 9.75008 14.1777 13.1856 14.6061Z" stroke="#828282"/>
</svg>
