<svg width="32" height="32" viewBox="0 0 32 32" fill="none" xmlns="http://www.w3.org/2000/svg">
<rect width="32" height="32" rx="16" fill="#828282"/>
<path fill-rule="evenodd" clip-rule="evenodd" d="M9.08998 15.246L13.76 17.523C13.9581 17.6189 14.1218 17.7735 14.2288 17.9659C14.3358 18.1582 14.3809 18.3788 14.358 18.5977C14.335 18.8166 14.2451 19.0231 14.1005 19.1891C13.9559 19.355 13.7637 19.4723 13.55 19.525L8.50998 20.782C8.36179 20.8187 8.20749 20.8233 8.05737 20.7956C7.90725 20.7679 7.76477 20.7084 7.63945 20.6213C7.51413 20.5341 7.40886 20.4212 7.33066 20.2901C7.25246 20.159 7.20313 20.0127 7.18598 19.861C7.03026 18.514 7.17367 17.1492 7.60598 15.864C7.65473 15.7198 7.73369 15.5876 7.8376 15.4763C7.94151 15.365 8.06797 15.2772 8.20854 15.2187C8.3491 15.1602 8.50053 15.1324 8.6527 15.1371C8.80488 15.1418 8.9543 15.1789 9.09098 15.246H9.08998Z" fill="white"/>
<path fill-rule="evenodd" clip-rule="evenodd" d="M10.9602 24.86L14.4362 21C14.583 20.8363 14.7766 20.7217 14.9908 20.672C15.205 20.6222 15.4294 20.6397 15.6333 20.722C15.8372 20.8043 16.0108 20.9474 16.1305 21.1319C16.2502 21.3164 16.3101 21.5332 16.3022 21.753L16.1212 26.947C16.1159 27.0997 16.0781 27.2495 16.0102 27.3863C15.9423 27.5232 15.8459 27.644 15.7276 27.7406C15.6092 27.8371 15.4715 27.9073 15.3238 27.9464C15.1762 27.9854 15.0218 27.9925 14.8712 27.967C13.5356 27.7417 12.2653 27.2273 11.1492 26.46C11.0234 26.3736 10.9176 26.2614 10.8388 26.1308C10.7599 26.0002 10.7099 25.8543 10.692 25.7028C10.6741 25.5514 10.6887 25.3978 10.735 25.2524C10.7813 25.1071 10.858 24.9733 10.9602 24.86Z" fill="white"/>
<path fill-rule="evenodd" clip-rule="evenodd" d="M19.2032 19.722L24.1432 21.328C24.2883 21.3749 24.4218 21.4524 24.5346 21.5551C24.6474 21.6578 24.7369 21.7834 24.7972 21.9236C24.8576 22.0637 24.8872 22.2151 24.8843 22.3676C24.8814 22.5201 24.8459 22.6703 24.7802 22.808C24.1972 24.0306 23.3542 25.1111 22.3102 25.974C22.1925 26.0713 22.0554 26.1423 21.908 26.1823C21.7606 26.2223 21.6064 26.2304 21.4557 26.2059C21.305 26.1815 21.1612 26.1252 21.034 26.0407C20.9068 25.9562 20.7991 25.8455 20.7182 25.716L17.9642 21.308C17.8472 21.1217 17.7904 20.9038 17.8017 20.6841C17.813 20.4644 17.8917 20.2535 18.0271 20.0802C18.1625 19.9068 18.3481 19.7794 18.5586 19.7153C18.769 19.6512 18.9941 19.6535 19.2032 19.722Z" fill="white"/>
<path fill-rule="evenodd" clip-rule="evenodd" d="M24.2271 16.57L19.2321 18.002C19.0208 18.0628 18.796 18.057 18.5881 17.9855C18.3803 17.914 18.1995 17.7802 18.0704 17.6024C17.9412 17.4245 17.87 17.2112 17.8664 16.9914C17.8627 16.7716 17.9269 16.556 18.0501 16.374L20.9561 12.066C21.041 11.9398 21.1519 11.8332 21.2813 11.7533C21.4107 11.6734 21.5556 11.6219 21.7065 11.6025C21.8573 11.583 22.0106 11.5958 22.156 11.6403C22.3015 11.6847 22.4358 11.7596 22.5501 11.86C23.5672 12.7564 24.374 13.8661 24.9131 15.11C24.9741 15.25 25.0046 15.4013 25.0025 15.554C25.0004 15.7067 24.9657 15.8572 24.9007 15.9954C24.8358 16.1336 24.7421 16.2563 24.6259 16.3554C24.5098 16.4545 24.3738 16.5277 24.2271 16.57Z" fill="white"/>
<path fill-rule="evenodd" clip-rule="evenodd" d="M12.5562 4.44999C11.6735 4.68623 10.8142 5.00288 9.98924 5.39599C9.85617 5.45971 9.73771 5.55026 9.64131 5.66196C9.54491 5.77366 9.47265 5.90408 9.42908 6.04505C9.3855 6.18601 9.37155 6.33446 9.3881 6.48107C9.40465 6.62768 9.45134 6.76929 9.52524 6.89699L14.4072 15.353C14.5247 15.5576 14.7065 15.7177 14.9244 15.8083C15.1423 15.8989 15.3841 15.915 15.612 15.8539C15.84 15.7929 16.0413 15.6582 16.1848 15.4709C16.3283 15.2835 16.4058 15.054 16.4052 14.818V5.05299C16.4054 4.90547 16.375 4.75951 16.3161 4.62428C16.2572 4.48905 16.1709 4.36747 16.0627 4.26717C15.9545 4.16688 15.8268 4.09004 15.6875 4.04148C15.5482 3.99292 15.4003 3.97368 15.2532 3.98499C14.3419 4.05725 13.4391 4.2129 12.5562 4.44999Z" fill="white"/>
</svg>
