<svg width="16" height="23" viewBox="0 0 16 23" fill="none" xmlns="http://www.w3.org/2000/svg">
<path d="M8.00673 21.2767L7.88079 21.1292C7.88072 21.1291 7.88064 21.129 7.88057 21.129C6.4386 19.4351 5.08331 17.6693 3.81991 15.8384L3.58819 15.4941L3.58807 15.494C2.29689 13.5774 0.647205 11.0928 0.646729 8.15459C0.656956 6.21064 1.43585 4.34966 2.8134 2.97795C4.1912 1.606 6.05591 0.834999 8.00027 0.83332C9.94572 0.833347 11.812 1.60362 13.1912 2.97575C14.5701 4.34762 15.3498 6.20953 15.3601 8.15456C15.3596 11.0929 13.7101 13.5703 12.4247 15.4883L12.4228 15.4911L12.1923 15.8402C10.9291 17.6704 9.57415 19.4356 8.1328 21.1291C8.13274 21.1291 8.13269 21.1292 8.13264 21.1292L8.00673 21.2767Z" stroke="#828282"/>
</svg>
